<svg width="18" height="18" viewBox="0 0 18 18" xmlns="http://www.w3.org/2000/svg">
    <g fill="#172E4B" fill-rule="nonzero">
        <path d="M15.468 2.532A8.587 8.587 0 0 0 9.356 0c-2.309 0-4.48.9-6.112 2.532A8.587 8.587 0 0 0 .712 8.644c0 2.309.9 4.48 2.532 6.112a8.587 8.587 0 0 0 6.112 2.532c2.309 0 4.48-.9 6.112-2.532A8.587 8.587 0 0 0 18 8.644c0-2.31-.9-4.48-2.532-6.112zm-.661 11.562a7.658 7.658 0 0 1-5.451 2.258 7.659 7.659 0 0 1-5.45-2.258 7.658 7.658 0 0 1-2.258-5.45c0-2.06.802-3.995 2.257-5.45A7.658 7.658 0 0 1 9.356.935c2.059 0 3.994.801 5.45 2.257a7.657 7.657 0 0 1 2.258 5.45c0 2.06-.802 3.995-2.257 5.451z"/>
        <path d="M9.356 1.641a7.01 7.01 0 0 0-7.003 7.003 7.01 7.01 0 0 0 7.003 7.003 7.01 7.01 0 0 0 7.003-7.003A7.01 7.01 0 0 0 9.356 1.64zm3.377 4.845L10.31 8.5a1.01 1.01 0 0 1-.018.66l.446.42a.353.353 0 1 1-.484.513l-.424-.4a1.01 1.01 0 0 1-.964.006l-.436.362a.351.351 0 0 1-.497-.046.353.353 0 0 1 .046-.497l.418-.347a1.01 1.01 0 0 1 .03-.803L5.19 5.314a.353.353 0 0 1 .484-.513l3.257 3.074a1.01 1.01 0 0 1 .944.066l2.407-1.997a.353.353 0 0 1 .45.542z"/>
    </g>
</svg>
