<svg width="18" height="17" viewBox="0 0 18 17" xmlns="http://www.w3.org/2000/svg">
    <path d="M12.192 12.858a7.105 7.105 0 0 1-4.274 1.421c-3.94 0-7.14-3.199-7.14-7.14C.779 3.2 3.979 0 7.919 0c3.94 0 7.14 3.199 7.14 7.14a7.106 7.106 0 0 1-1.422 4.274l3.844 3.843a1.021 1.021 0 0 1-1.445 1.444l-3.843-3.843zM7.918 1.488a5.653 5.653 0 0 0-5.65 5.652 5.653 5.653 0 0 0 5.65 5.65 5.654 5.654 0 0 0 5.651-5.65 5.654 5.654 0 0 0-5.65-5.651zm0 .608A5.046 5.046 0 0 0 2.875 7.14a5.046 5.046 0 0 0 5.043 5.044 5.046 5.046 0 0 0 5.044-5.044 5.046 5.046 0 0 0-5.044-5.044z" fill="#172E4B" fill-rule="nonzero"/>
</svg>
