<svg width="91" height="65" viewBox="0 0 91 65" xmlns="http://www.w3.org/2000/svg">
    <g fill-rule="nonzero" fill="none">
        <path fill="#FFF" d="M5.162 6.271h78.276v49.453L46.88 59.561 44.3 43.787H5.162z"/>
        <path d="M21.985 30.236c-.539 0-.951.19-1.3.535-.35.347-.508.787-.508 1.323 0 .535.159.975.508 1.321.349.347.793.536 1.3.536.476 0 .889-.19 1.206-.536.317-.346.508-.786.508-1.321 0-.536-.16-.976-.508-1.323a1.594 1.594 0 0 0-1.206-.535zM30.582 17.583c0 .504.159.944.476 1.29.317.347.698.536 1.205.567v-3.714c-.476.031-.888.22-1.205.567a1.912 1.912 0 0 0-.476 1.29zM50.855 19.472c.508 0 .92-.19 1.269-.535.349-.347.507-.787.507-1.323 0-.535-.158-.975-.507-1.321-.35-.347-.761-.536-1.27-.536-.507 0-.919.19-1.268.536-.349.346-.508.786-.508 1.321 0 .536.159.976.508 1.323.349.346.761.535 1.269.535zM30.296 30.236c-.508 0-.92.19-1.27.535-.348.347-.507.787-.507 1.323 0 .535.159.975.508 1.321.349.347.761.536 1.269.536.507 0 .92-.19 1.269-.536.349-.346.507-.786.507-1.321 0-.536-.158-.976-.507-1.323a1.785 1.785 0 0 0-1.27-.535zM57.96 31.212a.57.57 0 0 0 .19-.44.506.506 0 0 0-.19-.41.784.784 0 0 0-.476-.157h-1.84v1.196h1.84c.19 0 .349-.063.476-.189zM60.37 18.874a.505.505 0 0 0-.19-.41.781.781 0 0 0-.475-.157h-2.157v1.196h2.157c.19 0 .349-.063.475-.157a.637.637 0 0 0 .19-.472zM59.895 16.702a.569.569 0 0 0 .19-.44.505.505 0 0 0-.19-.41.781.781 0 0 0-.475-.157h-1.84v1.196h1.84c.19 0 .349-.063.475-.19zM57.77 32.817h-2.158v1.197h2.158c.19 0 .348-.063.476-.158a.57.57 0 0 0 .19-.44.507.507 0 0 0-.19-.41c-.128-.094-.286-.189-.476-.189zM34.009 15.726v3.714c.475-.031.888-.22 1.205-.566.317-.347.476-.787.476-1.29 0-.504-.159-.945-.476-1.291a1.744 1.744 0 0 0-1.205-.567zM48.094 33.038a.729.729 0 0 0-.285-.598 1.164 1.164 0 0 0-.762-.252h-1.364v1.7h1.396c.317 0 .57-.095.761-.252.159-.126.254-.346.254-.598zM42.574 15.726c-.54 0-.951.189-1.3.535-.35.346-.508.787-.508 1.322s.158.976.508 1.322c.349.346.793.535 1.3.535.476 0 .889-.189 1.206-.535.317-.346.507-.787.507-1.322s-.158-.976-.507-1.322c-.35-.346-.73-.535-1.206-.535zM66.716 19.472c.508 0 .92-.19 1.27-.535.348-.347.507-.787.507-1.323 0-.535-.159-.975-.508-1.321a1.731 1.731 0 0 0-1.269-.536c-.507 0-.92.19-1.269.536-.349.346-.507.786-.507 1.321 0 .536.158.976.507 1.323.35.346.762.535 1.27.535z" fill="#1940FF"/>
        <path d="M86.195.303H4.125C1.84.303 0 2.128 0 4.395v38.967c0 2.266 1.84 4.092 4.124 4.092h23c1.238 0 2.221.975 2.221 2.203v10.702c0 2.266 1.84 4.092 4.124 4.092h52.726c2.284 0 4.124-1.826 4.124-4.092V4.395c0-2.267-1.84-4.092-4.124-4.092zm-11.833 11.11c0 .63.254.945.73.945.507 0 .76-.315.76-.944h1.397c0 .66-.19 1.196-.603 1.573-.38.378-.92.567-1.554.567-.635 0-1.142-.189-1.555-.567-.38-.377-.603-.912-.603-1.573h1.428zm-2.57 2.865h1.65v6.327l1.808-6.327h3.172v6.673h-1.649v-6.295l-1.808 6.263h-3.173v-6.64zm-7.613.85c.697-.661 1.554-1.007 2.57-1.007 1.014 0 1.87.346 2.569 1.007.697.66 1.015 1.48 1.015 2.455 0 .976-.35 1.794-1.015 2.455-.698.661-1.555 1.007-2.57 1.007s-1.872-.346-2.57-1.007c-.698-.66-1.015-1.48-1.015-2.455-.032-.976.317-1.794 1.016-2.455zm-8.249-.85h3.585c.666 0 1.237.157 1.65.472.412.315.634.724.634 1.228 0 .377-.127.724-.349 1.007-.254.283-.57.472-1.015.598.54.063.952.252 1.237.535.286.283.444.661.444 1.102 0 .503-.222.913-.634 1.227-.413.315-.952.472-1.65.472H55.93v-6.64zm3.775 18.35c.286.284.444.662.444 1.102 0 .504-.221.913-.634 1.228-.413.315-.952.472-1.65.472h-3.902v-6.673h3.585c.666 0 1.237.157 1.65.472.412.315.634.724.634 1.228 0 .377-.127.724-.349 1.007-.254.283-.57.472-1.015.598.54.094.952.252 1.237.566zm-11.42-17.5c.697-.661 1.554-1.007 2.57-1.007 1.014 0 1.87.346 2.569 1.007.698.66 1.015 1.48 1.015 2.455 0 .976-.349 1.794-1.015 2.455-.698.661-1.555 1.007-2.57 1.007s-1.872-.346-2.57-1.007c-.698-.66-1.015-1.48-1.015-2.455 0-.976.35-1.794 1.016-2.455zm3.965 13.629v6.673h-1.745v-6.673h1.745zM14.91 35.43V30.3h-2.918v5.13h-1.745v-6.673h6.44v6.673H14.91zm-4.695-14.51v-9.034h1.872v7.397h4.22v-7.397h1.871v7.397h1.079v3.714h-1.872v-2.078h-7.17zm14.466 13.66c-.539.661-1.237 1.007-2.062 1.007-.602 0-1.11-.189-1.522-.535-.444-.377-.73-.85-.952-1.48v4.502H18.4v-9.317h1.745v1.92c.19-.63.508-1.133.952-1.48.444-.377.951-.534 1.522-.534.825 0 1.523.346 2.062 1.007.54.66.825 1.48.825 2.455 0 .976-.285 1.763-.825 2.455zm-.856-13.66h-3.173v-6.642h1.65v6.327l1.809-6.327h3.172v6.673h-1.65v-6.295l-1.808 6.263zm9.01 13.66c-.698.661-1.555 1.007-2.57 1.007s-1.872-.346-2.57-1.007c-.698-.66-1.015-1.48-1.015-2.455 0-.976.35-1.794 1.015-2.455.698-.661 1.555-1.007 2.57-1.007s1.872.346 2.57 1.007c.698.66 1.015 1.48 1.015 2.455 0 .976-.317 1.763-1.015 2.455zm1.174-11.08h-1.745v-2.455c-.984-.031-1.84-.377-2.507-1.038-.666-.661-.983-1.48-.983-2.424 0-.976.317-1.763.983-2.424.667-.66 1.491-1.007 2.507-1.038v-2.77h1.745v2.77c.983.031 1.84.377 2.506 1.038.666.661.983 1.48.983 2.424 0 .976-.317 1.763-.983 2.424-.666.66-1.491 1.007-2.506 1.038V23.5zm7.613 11.08c-.539.661-1.237 1.007-2.062 1.007-.603 0-1.11-.189-1.523-.535-.444-.377-.73-.85-.951-1.48v4.502H35.34v-9.317h1.745v1.92c.19-.63.507-1.133.951-1.48.445-.377.952-.534 1.523-.534.825 0 1.523.346 2.062 1.007.54.66.825 1.48.825 2.455 0 .976-.254 1.763-.825 2.455zm.032-14.07c-.444-.377-.73-.85-.952-1.479v4.5h-1.745v-9.253h1.745v1.92c.19-.63.508-1.133.952-1.48.444-.377.952-.534 1.523-.534.825 0 1.523.346 2.062 1.007.54.66.825 1.48.825 2.455 0 .976-.286 1.794-.825 2.455-.54.661-1.237 1.007-2.062 1.007a2.935 2.935 0 0 1-1.523-.598zm4.029 8.247v1.889h1.586c.793 0 1.428.22 1.904.66.476.441.73 1.008.73 1.732s-.254 1.29-.73 1.73c-.476.442-1.11.662-1.904.662h-3.363v-6.673h1.777zm32.748 18.251H46.57v-1.852h30.075l1.785 1.852z" fill="#1940FF"/>
        <path d="M38.926 30.236c-.54 0-.952.19-1.3.535-.35.347-.508.787-.508 1.323 0 .535.158.975.507 1.321.35.347.793.536 1.3.536.477 0 .89-.19 1.206-.536.318-.346.508-.786.508-1.321 0-.536-.159-.976-.508-1.323a1.594 1.594 0 0 0-1.205-.535z" fill="#1940FF"/>
        <path fill="#FFF" d="M76.85 34.473h1.494l2.803 6.455H79.39l-.928-2.026.057 8.106h-1.924l.02-8.106-.812 2.026h-1.719z"/>
    </g>
</svg>
