<svg width="66" height="66" viewBox="0 0 66 66" xmlns="http://www.w3.org/2000/svg">
    <g fill="none" fill-rule="evenodd">
        <rect fill="#172E4B" width="66" height="66" rx="14"/>
        <path d="m43.687 32.278-6.172-6.9c-.419-.395-1.22-.559-1.688-.101-.46.45-.447 1.323.012 1.775l4.34 4.846H23.157c-.639 0-1.157.545-1.157 1.218 0 .672.518 1.217 1.157 1.217H40.18l-4.34 4.846c-.395.416-.468 1.32-.012 1.776.456.455 1.287.31 1.688-.102l6.172-6.9c.21-.236.314-.513.313-.837-.01-.29-.124-.626-.313-.838z" fill="#FFF" fill-rule="nonzero"/>
    </g>
</svg>
