<svg width="21" height="20" viewBox="0 0 21 20" xmlns="http://www.w3.org/2000/svg">
    <g fill="#FFF" fill-rule="nonzero">
        <path d="M17.94 17.5h-1.667a.416.416 0 0 1-.416-.416v-1.25H6.274a.416.416 0 0 1-.417-.417v-1.25h-1.25a.416.416 0 1 1 0-.833h1.667c.23 0 .416.186.416.417V15h9.584a.416.416 0 0 1 .417.416v1.25h1.25a.416.416 0 1 1 0 .834z"/>
        <path d="M10.857 14.167a.416.416 0 0 1-.356-.2c-.173-.285-4.228-6.993-4.228-9.383A4.589 4.589 0 0 1 10.857 0a4.588 4.588 0 0 1 4.583 4.584c0 2.39-4.054 9.098-4.227 9.383a.416.416 0 0 1-.356.2zm0-13.333a3.755 3.755 0 0 0-3.75 3.75c0 1.628 2.445 6.131 3.75 8.353 1.304-2.222 3.75-6.726 3.75-8.353a3.754 3.754 0 0 0-3.75-3.75z"/>
        <path d="M20.44 20H1.274a.417.417 0 0 1-.409-.498l1.667-8.333a.417.417 0 0 1 .408-.335h6.485c.153 0 .293.083.366.217.42.767.803 1.434 1.066 1.883.262-.45.646-1.116 1.066-1.883a.416.416 0 0 1 .366-.217h6.485c.198 0 .37.14.408.335l1.667 8.333a.417.417 0 0 1-.409.499zm-18.658-.833h18.15l-1.5-7.5h-5.897c-.727 1.316-1.316 2.29-1.322 2.3-.152.249-.562.249-.713 0-.006-.01-.596-.984-1.322-2.3H3.281l-1.5 7.5zM10.857 6.667a2.086 2.086 0 0 1-2.084-2.083c0-1.149.935-2.084 2.084-2.084 1.148 0 2.083.935 2.083 2.084a2.086 2.086 0 0 1-2.083 2.083zm0-3.333c-.69 0-1.25.56-1.25 1.25s.56 1.25 1.25 1.25 1.25-.56 1.25-1.25-.56-1.25-1.25-1.25z"/>
    </g>
</svg>
