<svg width="21" height="16" viewBox="0 0 21 16" xmlns="http://www.w3.org/2000/svg">
    <g fill="#FFF" fill-rule="nonzero">
        <path d="M5.998 6.204a.774.774 0 0 0-1.095-.014l-.967.942a.855.855 0 0 1-.132.128 6.25 6.25 0 0 1 5.323-5.81 6.289 6.289 0 0 1 5.965 2.424.69.69 0 0 0 1.098-.833A7.666 7.666 0 0 0 8.92.088 7.626 7.626 0 0 0 2.418 7.26a.317.317 0 0 1-.045-.057L1.342 6.144A.775.775 0 0 0 .233 7.225l2.298 2.358a.77.77 0 0 0 1.094.014l2.358-2.298a.775.775 0 0 0 .014-1.095zM3.14 8.324l.068-.005c-.021.026-.043.026-.068.004zM19.793 8.267l-2.297-2.358a.774.774 0 0 0-1.095-.014l-2.358 2.298a.775.775 0 0 0 1.08 1.11l.968-.943a.763.763 0 0 1 .12-.117 6.25 6.25 0 0 1-5.321 5.762 6.29 6.29 0 0 1-5.965-2.424.69.69 0 0 0-1.098.832 7.666 7.666 0 0 0 7.27 2.954 7.625 7.625 0 0 0 6.5-7.147.35.35 0 0 1 .056.07l1.032 1.058a.775.775 0 0 0 1.108-1.082z"/>
    </g>
</svg>
