<svg width="71" height="71" viewBox="0 0 71 71" xmlns="http://www.w3.org/2000/svg">
    <g fill="none" fill-rule="evenodd">
        <path d="M35.136 64.372c16.066 0 29.164-13.08 29.164-29.26S51.202 5.853 35.136 5.853c-16.067 0-29.167 13.08-29.167 29.259 0 16.18 13.1 29.26 29.167 29.26zm0 5.853c19.28 0 34.998-15.695 34.998-35.113C70.134 15.698 54.416 0 35.136 0 15.854 0 .134 15.698.134 35.112c0 19.418 15.72 35.113 35.002 35.113z" fill="#00A650"/>
        <path d="M35.133.431c.456.41.673.887.797 1.506.102-.07 1.708-.585 1.962.886-.092-.04-.458-.152-.689-.076-1.096.28-.392 2.396-2.07 2.456-1.677-.06-.973-2.176-2.067-2.456-.232-.076-.597.036-.69.076.254-1.47 1.86-.956 1.963-.886.122-.619.339-1.095.794-1.506zm0 3.916a.648.648 0 0 0 .529-.254c.502-.639-.327-1.588-.529-2.19-.2.602-1.03 1.551-.527 2.19.139.178.335.255.527.254zM52.741 60.196c.737-.892 1.553-.373 1.553-.668-.076-.371.296-.745.74-.594.074.073.146-.521.442-.891.37-.371 1.113-.668 1.848-.592h.813c.299-.076.817-.076.965-.224h.072a1.752 1.752 0 0 0 1.108-.667c.297-.448.445-1.41-.22-1.71-.37-.072-1.034.3-.816.375.076 0 .224 0 .372.147.297.298.074.889-.372.965-.588.073-.518-.594-.588-.373-.077.297-.447.596-.815.746-.37.146-.741.072-.741.072s.15-.15.52-.592c.443-.371.37-.594.814-1.264.666-1.038 1.256-.668 1.182-.89-.074-.371.297-.817.664-.742.075 0 .075-.593.297-.963.222-.52.744-.892 1.332-1.04.594-.074 1.034-.297 1.034-.297.224-.072.445-.147.667-.297l.15-.076c.366-.147.811-.52.96-.888.22-.52.147-1.484-.594-1.632-.443 0-.96.444-.738.444.072 0 .148.074.371.146.367.149.295.819-.076.893-.516.15-.664-.297-.664-.074 0 .297-.296.742-.592.964-.37.147-.74.223-.74.223s.146-.15.442-.668c.298-.52.152-.742.444-1.484.298-.816.887-1.187.815-1.26-.297-.523 0-.966.443-1.04 0 0-.072-.223.15-.741.22-.52.516-1.042 1.108-1.263.518-.222 1.036-.592 1.036-.592.146-.149.444-.374.592-.522l.072-.073c.296-.297.518-.668.593-1.112.074-.52-.222-1.41-.96-1.336-.445 0-.89.668-.593.593.07-.074.148-.074.368 0 .447.224.52.743.15 1.038-.448.298-.74-.295-.666 0 .074.298-.074.743-.368 1.038-.224.225-.594.374-.594.374s.076-.149.22-.744c.15-.594 0-.74.076-1.557.074-1.188.814-.889.666-1.336-.368-.742.218-.813.148-.89 0-.074-.148-.594-.222-1.039 0-.517.222-1.039.664-1.336.151-.146.74-.742.74-.742.15-.148.518-.594.667-.89l.074-.076c.221-.37.37-.815.295-1.26-.074-.518-.59-1.334-1.258-1.114-.367.152-.518.818-.442.743.075 0 .222-.147.517-.074.37 0 .592.595.296.965-.371.445-.813-.075-.667.148.076.297.076.816-.146 1.115-.15.295-.448.592-.448.592v-.817c.078-.668-.144-.741-.292-1.558-.148-1.114.442-1.334.292-1.408-.368-.3-.368-.82 0-.966.078-.073-.368-.445-.514-.963-.072-.52 0-.967.37-1.485.294-.518.592-.964.592-.964.075-.224.297-.667.37-.89v-.076c.148-.445.148-.89 0-1.336-.224-.518-.888-1.111-1.48-.741-.37.223-.37.964-.298.817.076-.076.15-.151.446-.224.37-.073.74.446.592.895-.296.516-.812.144-.664.292.218.224.294.744.218 1.114-.072.37-.366.669-.366.669s0-.224-.15-.818c-.148-.592-.296-.592-.666-1.412-.442-1.037.148-1.48-.072-1.408-.37 0-.518-.74-.223-.964.072 0-.444-.37-.74-.817-.223-.445-.295-.963 0-1.484.222-.518.37-1.333.37-1.333.075-.3.147-.52.075-.744v-.073c.072-.447-.076-.89-.3-1.261-.292-.446-1.178-.89-1.626-.373-.296.373-.22 1.114-.072.892.072-.076.072-.223.296-.298.446-.221.886.222.814.668-.072.595-.742.296-.518.445.294.223.446.669.446 1.038 0 .373-.152.742-.152.742s-.074-.22-.366-.742c-.224-.52-.448-.52-.96-1.187-.744-.964 0-1.41-.45-1.41-.74-.075-.37-.812-.442-.812-.074-.076-.516-.3-.887-.67-.37-.375-.516-.817-.442-1.412.144-.592.22-1.482.22-1.482 0-.223 0-.374-.076-.593v-.076c-.072-.445-.444-.89-.81-1.191-.371-.365-1.405-.589-1.777 0-.147.376.223 1.118.298.894 0-.073 0-.221.219-.37.371-.296.889 0 .961.52 0 .518-.664.442-.442.518.296.15.592.52.74.891.075.371 0 .74 0 .74s-.148-.146-.518-.59c-.37-.521-.593-.446-1.258-.966-.889-.67-.593-1.261-.74-1.261-.885.148-.591-.594-.667-.669a2.37 2.37 0 0 1-1.034-.372c-.37-.297-.665-.666-.74-1.261 0-.593-.59-2.076-.59-2.076v-.074a2.256 2.256 0 0 0-.89-.967c-.442-.221-1.404-.221-1.553.45-.146.443.297 1.036.297.813.076-.073 0-.296.147-.444.299-.37.887-.223 1.037.296.224.518-.442.518-.22.592.292.075.664.37.888.67.148.37.147.74.147.74s-.147-.148-.591-.443c-.52-.373-.666-.297-1.482-.597-1.034-.517-.591-1.184-1.034-1.036-.74.222-.74-.52-.814-.52-.074 0-.592 0-1.036-.148a1.47 1.47 0 0 1-1.036-1.038c-.221-.595-.517-1.41-.517-1.41-.148-.224-.296-.373-.442-.522v-.074c-.37-.296-.74-.369-1.188-.296-.443.076-.81.296-.589.82.073.294.371.367.371.367s0-.294.444-.367c0 0 .294 0 .442.219.22.297-.148.446 0 .517.814.448.814 1.19.74 1.115-.888-.89-2.219-1.04-2.219-1.04-.297.373-.887.297-.887-.22h-.516c-.668-.075-1.262-.075-2.072-.445 0 0 1.776-.146 2.736-.815.74-.448 1.406-.82 1.924-.742.368 0 .738.147 1.034.443.074.075.297-.224.664-.15.445.15.373.594.518.594.296.074.517 0 1.111.372.518.37.518.52 1.257.668.665.149.961.296.961.296s-.222.222-.517.222c-.22.074-.666.15-1.037-.073 0 0 .075.372-.294.521-.296.073-.516-.075-.666-.298-.074-.076-.074-.372.15-.52.22-.148-.372-.22-.592-.148-.373.149-.373.518-.222.817.072.15.294.443.664.593.37.15.96.15 1.33 0 .372-.221.815-.296 1.482-.444.59-.227 1.256-.075 1.776.369.516.296.516.445.737.892l.074.073c.073.075.296-.296.665-.073.372.223.224.594.372.667.292.223.442.15.958.592.446.522.37.669 1.041.967.66.371.883.517.883.517s-.293.149-.59.149c-.223 0-.594-.073-.964-.371 0 0-.072.445-.442.445s-.594-.369-.594-.593c0-.223.074-.223.374-.295.22-.075-.15-.442-.594-.297-.22.073-.444.445-.444.666.074.224.224.595.52.814.368.224.886.375 1.33.3.37-.076.814-.076 1.553-.076.592 0 1.255.225 1.555.67.371.37.516.52.59 1.113l.074.073c0 .15.294-.073.59.224.371.295.076.594.222.742.223.222.447.222.741.815.37.518.294.667.814 1.186.516.446.742.67.742.67s-.372.073-.596 0a1.843 1.843 0 0 1-.882-.594s-.078.442-.522.37c-.297-.073-.52-.294-.52-.665.076-.226.223-.3.52-.3.222 0-.222-.445-.52-.445-.366 0-.515.296-.59.594 0 .225.075.592.295.888.296.3.815.597 1.182.597.447 0 .89.149 1.557.297.59.15 1.258.742 1.403 1.188.223.52.223.814.223 1.185v.076c.74 0 .964.443.666 1.036 0 0 .37.3.516.966.15.67.076.742.446 1.335.445.673.592.891.592.891s-.372 0-.592-.147c-.222-.071-.518-.372-.664-.817 0 0-.224.297-.594.222-.297-.149-.442-.445-.37-.742.073-.224.446-.37.666-.297.074.073-.22-.368-.444-.445-.294-.073-.664.148-.74.445-.072.224-.148.594.076.967.219.37.59.667 1.032.814.374.148.742.371 1.408.667.517.3 1.035 1.037 1.035 1.484.074.522 0 .89-.147 1.264.738.147.886.741.443 1.111 0 0 .22.446.295 1.189 0 .668-.149.74.074 1.41.296.667.296.965.296.965s-.296-.076-.519-.298a1.67 1.67 0 0 1-.442-.893s-.297.373-.593.074c-.296-.22-.296-.666-.145-.89.22-.146.367-.147.516-.073.222.15 0-.447-.223-.594-.293-.073-.59 0-.74.224-.22.296-.22.594-.148.963.076.446.373.891.74 1.114.371.222.667.52 1.184 1.04.442.372.814 1.184.666 1.706-.074.445-.074.669-.296.964v.072c.444.448.444.967-.072 1.264 0 0 .222.519.072 1.189-.148.667-.296.738-.222 1.408.074.74.074 1.039.074 1.039s-.296-.148-.443-.446c-.148-.148-.296-.52-.223-.963 0 0-.369.295-.665-.075-.147-.296-.075-.743.147-.817.296-.146.296-.146.518 0 .223.22.15-.373-.073-.592-.15-.224-.592-.15-.812 0a1.228 1.228 0 0 0-.373.89c0 .444.152.964.446 1.262.294.295.518.666.961 1.26.295.447.443 1.336.22 1.78-.22.519-.294.741-.663.965v.074c-.075.075.37.297.294.668-.147.444-.518.444-.592.593-.072.297.074.446-.22 1.038-.294.67-.446.67-.592 1.336-.076.744-.148 1.041-.148 1.041s-.296-.224-.37-.52c0-.223-.148-.595.074-1.039 0 0-.368.146-.592-.223-.074-.37.076-.595.296-.744.146-.146.444 0 .514.149 0 .15.298-.22 0-.668-.144-.22-.514-.297-.734-.147-.15.147-.446.37-.594.742-.074.443 0 .965.148 1.335.22.372.37.818.594 1.485.218.52.146 1.41-.224 1.78-.294.446-.518.67-.888.816l-.075.075c-.073.075.371.297.151.668-.151.372-.518.298-.594.446-.147.222-.073.445-.516.963-.444.524-.594.446-.886 1.112-.3.67-.448.967-.448.967s-.146-.297-.146-.593c-.074-.226 0-.593.222-.962 0 0-.372 0-.444-.45 0-.296.222-.519.444-.592.148 0 .372.073.444.296.074.148.294-.296.22-.593-.07-.223-.444-.445-.74-.371-.22.075-.512.223-.74.593-.221.371-.294.89-.144 1.262.072.443.072.89.217 1.63.077.522-.294 1.338-.664 1.71-.442.295-.664.444-1.105.518v.072c.145.297-.077.743-.077.743-.368.297-.594.076-.74.222-.223.224-.072.299-.59.745-.59.37-.74.295-1.11.891-.44.518-.668.74-.668.74s-.074-.296-.074-.592c.074-.225.15-.594.52-.89 0 0-.446-.076-.37-.449 0-.37.222-.445.518-.519.223-.072.443.074.443.373.073.146.296-.224.296-.52 0-.226-.223-.52-.516-.52-.223 0-.59.073-.891.37-.294.297-.516.816-.442 1.19 0 .445-.146.89-.222 1.63 0 .226-.148 1.113-.962 1.483l-.37-.517c.59-.296.89-1.335.298-1.779-.298-.223-1.037-.077-.815 0 .074.073.147.148.222.37.221.443.073.593-.148.742l-.96-1.335M17.53 60.196c-.739-.892-1.553-.373-1.553-.668.075-.371-.296-.745-.74-.594-.072.073-.148-.521-.444-.891-.368-.371-1.111-.668-1.848-.592h-.813c-.298-.076-.815-.076-.961-.224h-.074a1.76 1.76 0 0 1-1.111-.667c-.296-.448-.443-1.41.223-1.71.37-.072 1.034.3.814.375-.076 0-.222 0-.37.147-.298.298-.074.889.37.965.59.073.517-.594.59-.373.075.297.445.596.815.746.368.146.74.072.74.072s-.149-.15-.52-.592c-.444-.371-.368-.594-.814-1.264-.663-1.038-1.255-.668-1.18-.89.071-.371-.299-.817-.668-.742-.074 0-.074-.593-.296-.963-.222-.52-.742-.892-1.33-1.04-.594-.074-1.036-.297-1.036-.297-.224-.072-.445-.147-.667-.297l-.148-.076c-.366-.147-.811-.52-.96-.888-.221-.52-.147-1.484.594-1.632.44 0 .957.444.736.444-.073 0-.147.074-.37.146-.366.149-.294.819.075.893.516.15.666-.297.666-.074 0 .297.294.742.59.964.37.147.742.223.742.223s-.148-.15-.446-.668c-.296-.52-.146-.742-.442-1.484-.296-.816-.888-1.187-.815-1.26.299-.523 0-.966-.444-1.04 0 0 .075-.223-.147-.741-.222-.52-.518-1.042-1.108-1.263a6.547 6.547 0 0 1-1.036-.592c-.15-.149-.446-.374-.594-.522l-.072-.073a2.044 2.044 0 0 1-.592-1.112c-.074-.52.22-1.41.959-1.336.447 0 .89.668.595.593-.072-.074-.148-.074-.37 0-.446.224-.52.743-.15 1.038.448.298.742-.295.666 0-.074.298.076.743.368 1.038.226.225.596.374.596.374s-.076-.149-.222-.744c-.148-.594 0-.74-.074-1.557-.074-1.188-.814-.889-.668-1.336.368-.742-.218-.813-.146-.89 0-.074.146-.594.222-1.039 0-.517-.222-1.039-.668-1.336-.15-.146-.738-.742-.738-.742-.15-.148-.518-.594-.666-.89l-.075-.076c-.22-.37-.37-.815-.296-1.26.076-.518.593-1.334 1.26-1.114.366.152.515.818.441.743-.075 0-.222-.147-.517-.074-.37 0-.59.595-.296.965.371.445.813-.075.667.148-.076.297-.076.816.146 1.115.15.295.448.592.448.592v-.817c-.076-.668.144-.741.294-1.558.148-1.114-.442-1.334-.294-1.408.368-.3.368-.82 0-.966-.076-.073.368-.445.516-.963.07-.52 0-.967-.372-1.485a16.244 16.244 0 0 0-.592-.964c-.075-.224-.296-.667-.37-.89v-.076a2.066 2.066 0 0 1 0-1.336c.224-.518.89-1.111 1.482-.741.37.223.37.964.296.817-.074-.076-.148-.151-.444-.224-.372-.073-.74.446-.592.895.294.516.812.144.662.292-.218.224-.292.744-.218 1.114.074.37.368.669.368.669s0-.224.15-.818c.148-.592.296-.592.665-1.412.443-1.037-.15-1.48.073-1.408.37 0 .517-.74.223-.964-.072 0 .442-.37.737-.817.226-.445.298-.963 0-1.484-.22-.518-.368-1.333-.368-1.333-.074-.3-.149-.52-.075-.744v-.073c-.074-.447.074-.89.297-1.261.294-.446 1.184-.89 1.628-.373.296.373.222 1.114.074.892-.074-.076-.074-.223-.298-.298-.444-.221-.886.222-.812.668.072.595.738.296.516.445-.294.223-.444.669-.444 1.038 0 .373.15.742.15.742s.074-.22.37-.742c.22-.52.444-.52.958-1.187.742-.964 0-1.41.446-1.41.74-.075.37-.812.444-.812.073-.076.517-.3.887-.67.372-.375.518-.817.446-1.412-.148-.592-.224-1.482-.224-1.482 0-.223 0-.374.076-.593v-.076c.074-.445.443-.89.811-1.191.37-.365 1.407-.589 1.777 0 .146.376-.223 1.118-.297.894 0-.073 0-.221-.219-.37-.373-.296-.891 0-.963.52 0 .518.664.442.444.518-.296.15-.594.52-.742.891-.074.371 0 .74 0 .74s.148-.146.52-.59c.368-.521.591-.446 1.257-.966.888-.67.592-1.261.738-1.261.888.148.594-.594.668-.669.072 0 .59-.072 1.035-.372.37-.297.664-.666.74-1.261 0-.593.591-2.076.591-2.076v-.074c.22-.445.518-.743.888-.967.442-.221 1.404-.221 1.553.45.147.443-.297 1.036-.297.813-.074-.073 0-.296-.147-.444-.297-.37-.887-.223-1.037.296-.222.518.446.518.222.592-.294.075-.664.37-.89.67-.146.37-.146.74-.146.74s.147-.148.592-.443c.518-.373.668-.297 1.48-.597 1.037-.517.593-1.184 1.037-1.036.736.222.736-.52.811-.52.076 0 .592 0 1.036-.148A1.47 1.47 0 0 0 23.52 6.03c.223-.595.519-1.41.519-1.41.148-.224.294-.373.44-.522v-.074c.372-.296.742-.369 1.186-.296.443.076.814.296.59.82-.071.294-.37.367-.37.367s0-.294-.442-.367c0 0-.294 0-.444.219-.22.297.15.446 0 .517-.812.448-.812 1.19-.738 1.115.888-.89 2.218-1.04 2.218-1.04.296.373.886.297.886-.22h.518c.666-.075 1.26-.075 2.071-.445 0 0-1.777-.146-2.737-.815-.738-.448-1.405-.82-1.922-.742-.37 0-.74.147-1.034.443-.074.075-.298-.224-.664-.15-.447.15-.373.594-.521.594-.295.074-.516 0-1.11.372-.518.37-.518.52-1.255.668-.668.149-.962.296-.962.296s.22.222.518.222c.22.074.664.15 1.037-.073 0 0-.076.372.294.521.296.073.518-.075.664-.298.074-.076.074-.372-.146-.52-.222-.148.368-.22.592-.148.368.149.368.518.22.817-.072.15-.296.443-.666.593-.368.15-.958.15-1.33 0-.37-.221-.814-.296-1.48-.444-.592-.227-1.258-.075-1.778.369-.514.296-.514.445-.736.892l-.074.073c-.074.075-.296-.296-.666-.073-.368.223-.222.594-.368.667-.296.223-.446.15-.962.592-.444.522-.37.669-1.04.967a17.45 17.45 0 0 0-.884.517s.296.149.592.149c.22 0 .592-.073.962-.371 0 0 .07.445.444.445.368 0 .592-.369.592-.593 0-.223-.074-.223-.37-.295-.222-.075.146-.442.591-.297.22.073.443.445.443.666-.073.224-.222.595-.518.814-.37.224-.888.375-1.332.3-.37-.076-.812-.076-1.553-.076-.592 0-1.256.225-1.553.67-.372.37-.518.52-.59 1.113l-.074.073c0 .15-.298-.073-.593.224-.369.295-.074.594-.222.742-.22.222-.446.222-.74.815-.368.518-.294.667-.814 1.186-.516.446-.74.67-.74.67s.37.073.594 0c.222-.076.592-.224.884-.594 0 0 .076.442.52.37a.644.644 0 0 0 .518-.665c-.074-.226-.222-.3-.518-.3-.222 0 .222-.445.518-.445.37 0 .517.296.593.594 0 .225-.076.592-.298.888-.296.3-.813.597-1.18.597-.445 0-.891.149-1.557.297-.592.15-1.256.742-1.4 1.188-.225.52-.225.814-.225 1.185v.076c-.74 0-.965.443-.665 1.036 0 0-.37.3-.518.966-.15.67-.074.742-.444 1.335-.447.673-.594.891-.594.891s.372 0 .594-.147c.22-.071.518-.372.662-.817 0 0 .226.297.596.222.295-.149.442-.445.37-.742-.074-.224-.446-.37-.666-.297-.074.073.22-.368.444-.445.294-.073.664.148.737.445.074.224.148.594-.073.967a1.894 1.894 0 0 1-1.034.814c-.374.148-.742.371-1.408.667-.517.3-1.034 1.037-1.034 1.484-.074.522 0 .89.147 1.264-.738.147-.888.741-.443 1.111 0 0-.221.446-.295 1.189 0 .668.146.74-.076 1.41-.295.667-.295.965-.295.965s.295-.076.517-.298c.15-.148.371-.448.445-.893 0 0 .296.373.592.074.296-.22.296-.666.146-.89-.222-.146-.368-.147-.517-.073-.22.15 0-.447.223-.594.294-.073.59 0 .74.224.222.296.222.594.15.963-.076.446-.375.891-.742 1.114-.371.222-.666.52-1.183 1.04-.443.372-.813 1.184-.667 1.706.076.445.076.669.296.964v.072c-.442.448-.442.967.074 1.264 0 0-.222.519-.074 1.189.149.667.295.738.22 1.408-.071.74-.071 1.039-.071 1.039s.296-.148.442-.446c.151-.148.297-.52.223-.963 0 0 .369.295.665-.075.147-.296.075-.743-.147-.817-.296-.146-.296-.146-.518 0-.223.22-.147-.373.074-.592.148-.224.59-.15.812 0 .15.144.37.446.37.89s-.15.964-.444 1.262c-.294.295-.517.666-.96 1.26-.295.447-.445 1.336-.221 1.78.222.519.297.741.664.965v.074c.074.075-.367.297-.295.668.148.444.518.444.592.593.072.297-.074.446.22 1.038.295.67.444.67.594 1.336.076.744.148 1.041.148 1.041s.294-.224.37-.52c0-.223.148-.595-.076-1.039 0 0 .368.146.594-.223.074-.37-.076-.595-.296-.744-.148-.146-.444 0-.516.149 0 .15-.298-.22 0-.668.144-.22.516-.297.736-.147.15.147.446.37.594.742.072.443 0 .965-.148 1.335-.222.372-.37.818-.596 1.485-.218.52-.144 1.41.226 1.78.294.446.517.67.886.816l.077.075c.072.075-.373.297-.151.668.151.372.518.298.592.446.148.222.073.445.516.963.444.524.594.446.89 1.112.296.67.444.967.444.967s.148-.297.148-.593c.074-.226 0-.593-.222-.962 0 0 .37 0 .442-.45 0-.296-.22-.519-.442-.592-.15 0-.37.073-.446.296-.074.148-.294-.296-.22-.593.072-.223.442-.445.74-.371.222.075.514.223.74.593.22.371.294.89.144 1.262-.072.443-.072.89-.217 1.63-.077.522.293 1.338.663 1.71.445.295.667.444 1.107.518v.072c-.146.297.076.743.076.743.37.297.593.076.74.222.223.224.073.299.593.745.59.37.74.295 1.108.891.442.518.667.74.667.74s.074-.296.074-.592c-.074-.225-.15-.594-.518-.89 0 0 .444-.076.368-.449 0-.37-.222-.445-.516-.519-.222-.072-.444.074-.444.373-.074.146-.297-.224-.297-.52 0-.226.223-.52.52-.52.221 0 .588.073.887.37.296.297.516.816.44 1.19 0 .445.15.89.224 1.63 0 .226.15 1.113.963 1.483l.37-.517c-.591-.296-.889-1.335-.295-1.779.295-.223 1.034-.077.812 0a.78.78 0 0 0-.222.37c-.222.443-.075.593.148.742l.96-1.335" fill="#FBC707"/>
        <path d="m47.461 66.443-.017-.04-.006-.018.016-.007c.035-.018.073-.037.114-.06.04-.025.082-.05.127-.08a.612.612 0 0 0 .086-.067c.013-.014.022-.027.022-.036l-.011-.018c-.01-.01-.013-.017-.023-.026l-.468-.49-.963.376c-.004.031-.004.064-.004.098 0 .035.002.072.004.114v.12l.003.107c.005.083.009.144.018.178.004.018.01.032.011.044a.11.11 0 0 0 .04.03c.02.008.045.014.076.015a.672.672 0 0 0 .142-.011c.06-.012.126-.027.205-.051l.017-.006.005.018.018.042.046.117.016.04.005.02-.018.007-1.176.461-.019.007-.007-.017-.015-.042-.046-.117-.016-.04-.007-.02.018-.007.064-.034c.026-.013.05-.03.076-.045a.307.307 0 0 0 .062-.049.148.148 0 0 0 .045-.047c.022-.025.038-.052.055-.08.014-.03.026-.057.038-.09a.817.817 0 0 0 .028-.198l.013-.662.014-.663v-.001c.003-.288.009-.512.012-.757l.015-.707v-.013l.012-.006.405-.159.012-.003.01.009.693.736c.203.215.378.404.528.567.146.154.282.301.411.436l.338.354c.015.016.032.03.05.044.018.014.037.024.056.037.019.009.042.019.064.027a.519.519 0 0 0 .082.018h-.001a.436.436 0 0 0 .143-.003l.001.001.076-.014c.022-.007.045-.012.063-.017l.02-.008.004.018.018.042.048.115.013.044.007.017-.016.007-1.563.614-.02.006-.005-.018-.018-.042-.046-.117zm-1.123-.787.74-.29-.733-.784-.007 1.074zm-2.604 1.688a.379.379 0 0 0 .02.066c.01.016.023.036.035.05a.143.143 0 0 0 .046.038c.021.01.043.017.07.021a.473.473 0 0 0 .066.005l.091-.002c.038-.003.07-.006.1-.007.03-.002.055-.007.079-.01h.018l.005.017.011.042.028.122.012.044.003.018-.018.005-1.666.412-.018.005-.005-.018-.013-.044-.029-.122-.01-.043-.004-.017.016-.007.076-.026.09-.035a.95.95 0 0 0 .09-.034c.024-.01.04-.02.05-.028a.32.32 0 0 0 .055-.052.187.187 0 0 0 .026-.053.337.337 0 0 0 .005-.062.338.338 0 0 0-.012-.067l-.567-2.314-.08.018a.858.858 0 0 1-.077.02c-.028.008-.058.016-.09.029-.035.009-.065.02-.09.028l-.073.027a.225.225 0 0 0-.1.091.93.93 0 0 0-.096.2 1.609 1.609 0 0 0-.107.459l-.002.014-.013.002-.162.041-.02.005-.006-.02-.01-.043-.2-.815-.012-.043-.003-.019.02-.005 2.896-.717.02-.003.004.02.01.042.201.814.01.044.004.019-.02.004-.16.041-.015.004-.007-.013a1.892 1.892 0 0 0-.309-.355.747.747 0 0 0-.176-.133.247.247 0 0 0-.132-.035c-.022.006-.05.007-.076.013a2.03 2.03 0 0 0-.185.032h-.002a.838.838 0 0 1-.076.017l-.08.02.564 2.29v.003zm-6.402.107-.004-.022a1.817 1.817 0 0 1 .042-.684c.029-.107.067-.208.114-.306.049-.095.106-.185.171-.27.065-.083.14-.16.222-.227a1.828 1.828 0 0 1 1.397-.384c.072.012.139.025.202.041.058.015.109.031.159.05l.108-.126.007-.005.007-.002.187-.024h.021l.002.018.158 1.116.003.02v.001l.004.024.001.018-.018.004-.191.025-.016.002-.004-.015a2.997 2.997 0 0 0-.23-.417 1.518 1.518 0 0 0-.246-.28.722.722 0 0 0-.565-.165.719.719 0 0 0-.338.133.707.707 0 0 0-.218.291c-.054.124-.088.27-.102.435a2.884 2.884 0 0 0 .074.883c.026.098.055.187.086.266.036.082.072.154.112.22a.832.832 0 0 0 .276.288c.052.032.108.059.166.075.059.02.119.031.182.035.063.005.128.002.197-.005.1-.014.189-.037.272-.076a.83.83 0 0 0 .233-.15c.069-.064.135-.142.195-.233.061-.09.117-.194.164-.31l.01-.02.02.008.2.089.017.007-.007.018-.007.02h.002l.015.006-.005.017a2.465 2.465 0 0 1-.077.195c-.027.061-.059.12-.094.175a1.34 1.34 0 0 1-.601.535c-.067.032-.14.058-.222.079-.081.02-.169.038-.262.049-.111.016-.223.02-.332.016a1.987 1.987 0 0 1-.318-.045 1.534 1.534 0 0 1-.555-.256 1.449 1.449 0 0 1-.405-.465 1.858 1.858 0 0 1-.208-.65l-.001-.022zm-1.2-.787-.003.023v.022a1.074 1.074 0 0 1-.034.245.83.83 0 0 1-.405.512c-.068.038-.139.07-.215.1a1.695 1.695 0 0 1-.244.063 2.502 2.502 0 0 1-.567.034l-.232-.007-.028.802v.004a.252.252 0 0 0 .023.125h-.002c.01.016.02.032.038.046.017.015.038.028.061.042.016.005.033.011.058.016.02.01.047.015.078.023l.09.019c.025.006.05.01.072.014h.018v.019l-.002.044-.004.124-.001.046V69h-.022l-1.667-.06h-.02l.002-.02v-.044l.005-.126.002-.044v-.02h.02c.03 0 .06-.003.097-.006l.069-.004c.034-.003.063-.006.088-.01.022-.005.04-.009.053-.014a.345.345 0 0 0 .067-.035.113.113 0 0 0 .037-.038.197.197 0 0 0 .02-.053.357.357 0 0 0 .01-.074v-.002l.073-2.133v-.003a.263.263 0 0 0-.004-.066.144.144 0 0 0-.016-.055.115.115 0 0 0-.034-.045.363.363 0 0 0-.064-.042c-.02-.008-.043-.018-.068-.025a.674.674 0 0 0-.088-.024 1.145 1.145 0 0 0-.085-.02.326.326 0 0 0-.065-.013l-.017-.002v-.019l.001-.044.006-.126.001-.045v-.02l.021.002 1.696.059c.201.008.376.03.524.066.15.037.274.091.372.158a.63.63 0 0 1 .22.257.773.773 0 0 1 .065.354zm-1.69.704.07.003c.232.007.41-.04.534-.143.06-.05.105-.11.137-.188a.763.763 0 0 0 .057-.273v-.002a1.02 1.02 0 0 0-.026-.285.538.538 0 0 0-.092-.2.38.38 0 0 0-.181-.127.882.882 0 0 0-.294-.052l-.16-.005-.045 1.272zm-4.094 1.15.007-.045.004-.018.018.002c.038.001.081.004.126.004.046 0 .096-.003.15-.006a.62.62 0 0 0 .106-.014.104.104 0 0 0 .042-.02.407.407 0 0 0-.01-.055l-.163-.66-1.027-.152-.047.084c-.018.029-.034.061-.056.098-.02.04-.04.074-.058.106l-.05.092a1.503 1.503 0 0 0-.072.164.394.394 0 0 0-.01.045c0 .014.006.029.017.044a.22.22 0 0 0 .06.051c.03.022.074.044.127.063.055.019.124.039.203.057l.018.004-.002.02-.007.044-.02.122-.004.046-.004.02-.02-.006-1.25-.185-.02-.003.004-.018.005-.044.02-.125.006-.043.003-.02.019.002a.93.93 0 0 0 .075.004l.085-.002a.614.614 0 0 0 .14-.028.42.42 0 0 0 .087-.045.436.436 0 0 0 .076-.056.75.75 0 0 0 .067-.073c.02-.026.041-.054.058-.086l.34-.57.34-.568c.146-.25.261-.441.387-.651l.362-.605.007-.014.013.002.428.064.014.002.005.014c.085.358.165.686.237.985.067.288.128.539.179.754.048.209.093.402.138.585.044.178.082.338.118.473a.58.58 0 0 0 .052.123.448.448 0 0 0 .161.152c.021.01.043.02.068.029h.002c.024.01.047.02.07.025.024.007.044.014.065.018l.02.003-.003.017-.006.045-.02.127-.005.042-.003.02-.02-.003-1.659-.247-.02-.002.002-.02.006-.045.02-.123zm-.583-1.244.782.118-.247-1.05-.535.932zm-3.026.123c-.008.025-.01.045-.013.069 0 .02 0 .042.004.061a.139.139 0 0 0 .023.056.286.286 0 0 0 .105.087c.024.013.05.028.083.044.03.016.06.031.087.042.028.013.052.023.076.032l.016.008-.004.017-.012.044-.034.119-.014.042-.003.02-.02-.006-1.653-.456-.02-.006.005-.02.012-.042.033-.12.012-.044.005-.018.02.003.08.015.093.015a.635.635 0 0 0 .151.013.188.188 0 0 0 .074-.02.152.152 0 0 0 .048-.032v-.002a.31.31 0 0 0 .057-.114l.633-2.297-.079-.023-.077-.02c-.028-.007-.058-.015-.092-.021-.034-.006-.065-.013-.09-.019l-.078-.012a.243.243 0 0 0-.133.03.885.885 0 0 0-.18.127 2.12 2.12 0 0 0-.18.176c-.052.058-.099.115-.137.173l-.009.01-.013-.003-.162-.043-.018-.005.004-.022.012-.042.222-.808.013-.044.005-.019.02.006 2.875.795.018.007-.005.019-.01.043-.224.809-.01.042-.007.02-.019-.006-.162-.045-.014-.003v-.014a2.246 2.246 0 0 0-.094-.463.788.788 0 0 0-.09-.2.232.232 0 0 0-.1-.096l-.072-.028a.816.816 0 0 0-.087-.03 1.518 1.518 0 0 0-.09-.032l-.077-.023-.08-.02-.624 2.27v.004zm-4.24-1.085.017-.041.007-.018.018.005a1.986 1.986 0 0 0 .27.067.435.435 0 0 0 .106.011c.023 0 .034-.005.043-.009l.004-.022v-.033l.003-.68-.956-.4c-.02.021-.041.044-.067.069-.024.025-.049.054-.077.082-.031.032-.057.062-.083.09-.026.027-.05.054-.07.078a.882.882 0 0 0-.11.142l-.023.038c-.003.013 0 .031.007.046a.2.2 0 0 0 .044.067.6.6 0 0 0 .11.09c.049.033.109.068.182.105l.016.01-.006.016-.017.042-.049.115-.017.042-.007.02-.02-.01-1.165-.486-.018-.007.007-.019.018-.04.048-.117.015-.042.007-.017.02.007.07.02c.028.008.055.014.084.02v.001c.03.005.057.007.08.01a.378.378 0 0 0 .16-.025c.03-.009.06-.023.089-.036a.68.68 0 0 0 .156-.124l.468-.468.468-.468v-.001l.537-.535.497-.499.01-.009.012.004.401.168.012.004v.016l-.01 1.012-.01.774a77.642 77.642 0 0 0-.008 1.09c0 .024 0 .045.005.068a.298.298 0 0 0 .015.064c.004.02.015.043.027.065a.393.393 0 0 0 .09.12c.018.018.039.033.06.049h.001c.02.014.042.03.064.041.018.013.04.023.058.034l.018.006-.01.018-.014.041-.05.117-.016.04-.008.019-.02-.007-1.548-.647-.017-.009.007-.02.017-.038.049-.116zm-.263-1.35.733.306.014-1.077-.747.771zM20.96 63.47l-.144-.084-.012-.006.001-.014a2.04 2.04 0 0 0 .024-.472.862.862 0 0 0-.036-.218.259.259 0 0 0-.072-.115 1.928 1.928 0 0 0-.064-.046c-.02-.016-.046-.034-.075-.053-.03-.019-.055-.036-.082-.051-.023-.015-.045-.029-.068-.042l-.07-.041-1.174 2.044h-.001c-.01.023-.02.043-.028.064-.007.022-.01.042-.014.06a.203.203 0 0 0 .047.125c.01.013.025.03.043.046.018.019.043.04.067.065.027.02.054.042.076.062.023.018.045.036.065.049l.014.01-.009.017-.022.04-.062.107-.024.039-.009.017-.017-.01-1.488-.858-.015-.012.01-.015.02-.04.062-.108.024-.039.009-.017.016.008c.018.01.045.02.074.035l.089.04.088.034a.244.244 0 0 0 .055.016.349.349 0 0 0 .073 0 .124.124 0 0 0 .056-.022l.002-.001a.343.343 0 0 0 .085-.095l1.186-2.066-.07-.042c-.023-.011-.046-.024-.071-.038-.026-.015-.053-.028-.085-.044l-.082-.04-.072-.031a.242.242 0 0 0-.138-.007.932.932 0 0 0-.205.08 1.882 1.882 0 0 0-.394.255l-.01.01-.014-.008-.143-.082-.018-.01.01-.018.022-.038.418-.727.023-.038.009-.018.016.01 2.586 1.495.017.01-.009.017-.024.039-.416.726-.022.04-.011.017-.017-.011zm30.741.95-.02-.04-.01-.013.018-.012.053-.038.076-.051.067-.05c.02-.016.033-.03.041-.038a.479.479 0 0 0 .036-.065.132.132 0 0 0 .015-.055c0-.018-.006-.038-.01-.057-.008-.02-.017-.042-.028-.064l-.002-.001-.496-.87-1.106.634.483.849c.013.02.024.04.038.053h.002c.012.015.031.027.045.038a.16.16 0 0 0 .056.022.222.222 0 0 0 .07.002c.015-.001.033-.007.056-.011.022-.006.05-.016.083-.028a.76.76 0 0 0 .084-.03.338.338 0 0 0 .064-.028l.017-.007.01.015.02.038.064.11.02.038.012.017-.018.01-1.446.829-.017.008-.01-.017-.021-.038-.062-.11-.025-.038-.008-.017.017-.01a.798.798 0 0 0 .055-.037c.02-.015.046-.032.075-.056.029-.016.052-.038.073-.053.02-.016.031-.031.041-.041.018-.02.03-.04.038-.06a.157.157 0 0 0 .01-.058.238.238 0 0 0-.008-.059.26.26 0 0 0-.03-.062v-.002l-1.055-1.86-.002-.003a.444.444 0 0 0-.038-.052c-.014-.013-.027-.026-.041-.034a.122.122 0 0 0-.054-.02.429.429 0 0 0-.149.009.892.892 0 0 0-.091.026l-.083.026-.057.021-.017.008-.01-.015-.023-.04-.06-.108-.023-.036-.007-.02.016-.01 1.447-.827.015-.01.01.02.023.037.062.109.022.04.01.014-.017.01c-.018.014-.038.027-.06.045l-.067.053-.062.054c-.017.015-.03.032-.044.045a.239.239 0 0 0-.04.06c-.007.02-.01.038-.007.056a.313.313 0 0 0 .036.117h.002v.003l.426.747 1.106-.634-.413-.726-.002-.002a.253.253 0 0 0-.036-.054c-.013-.013-.03-.026-.042-.036a.155.155 0 0 0-.055-.018.393.393 0 0 0-.145.01c-.024.004-.052.012-.082.02-.031.01-.059.017-.082.026a.32.32 0 0 0-.063.023l-.017.007-.008-.016-.02-.04-.063-.107-.024-.038-.007-.019.018-.01 1.444-.826.018-.01.008.017.022.04.06.108.023.04.01.016-.015.008-.06.045c-.023.014-.043.032-.066.05-.022.017-.041.035-.063.051-.02.02-.035.038-.05.056a.179.179 0 0 0-.04.058.13.13 0 0 0-.01.059c.002.018.006.04.013.06a.46.46 0 0 0 .025.059h.002l1.057 1.863.002.001c.011.022.026.04.038.055.013.016.03.027.043.038a.195.195 0 0 0 .129.021c.018-.003.04-.005.065-.014.023-.005.05-.015.08-.024.032-.014.059-.023.085-.032a.595.595 0 0 0 .064-.03l.017-.008.01.016.021.038.064.11.022.039.008.017-.016.01-1.445.826-.02.01-.008-.016-.023-.039-.063-.11" fill="#FBC707" fill-rule="nonzero"/>
        <path d="M35.134 62.096c-14.807 0-26.855-12.089-26.855-27.022 0-14.857 12.048-26.945 26.855-26.945 14.808 0 26.858 12.088 26.858 26.945 0 14.381-11.422 27.022-26.858 27.022z" fill="#ED1C24"/>
        <path d="M18.321 28.153c.089-.027.172-.06.278-.062.13-.003.31.037.43-.025.498-.253.292-.727-.14-.796a.4.4 0 0 1-.504.285.423.423 0 0 1-.228.15.38.38 0 0 1-.122.01c.012.155.109.3.286.438zM37.335 42.44a4.908 4.908 0 0 1-3.209 1.192c-.139 0-.277-.008-.416-.02l-.48.065c-.836.116-1.693.164-2.536.138-.067.45-.2.837-.407 1.298l-.048.115c-.126.284-.31.588-.461.862a248.526 248.526 0 0 1-1.071 1.895c-.317.556-.69 1.16-.972 1.735-.143.273-.313.737-.313 1.048 0 .084.013.2.077.262.1.1.223.157.365.157.196-.001.268.136.137.336-.146.146-.371.215-.568.25-.182.035-.44.047-.634-.04-.133.372-.571.864-.66.962-.706.774-1.63.826-2.595.93-.215.03-.426.085-.637.141-.738.187-1.14-.112-1.788-.184-.09.404-.076.438.048.75.08.205-.052.155-.22.073-.381-.185-.597-.298-.682-.776l-.025-.012a.852.852 0 0 1-.32-.28l-.119-.06c-.435-.218-.52-.71-.397-.99l.013-.117c.121-1.24 1.551-1.742 2.62-1.487.252.005.657.189.86.291.336.17.768.322 1.136.164.594-.26.895-1.375 1.061-1.938l.666-2.224c.296-.986.635-2.01.893-3.002.078-.302.051-.92.017-1.249a3.141 3.141 0 0 1-.07-.224l-.181-.075c-.107-.045-.212-.09-.313-.137l-.097.063c-.897.57-2.01.455-2.94.028-.63-.294-1.256-.628-1.87-.955-.548-.294-1.091-.59-1.635-.892-.244-.132-.579-.342-.83-.445-.3-.122-.656-.326-.993-.242-.192.05-.311.251-.331.437.063.23-.092.253-.285.155-.2-.105-.25-.417-.25-.618 0-.138.026-.314.092-.46-.542-.028-1.242.093-1.372.693-.023.11.036.553.043.694.007.192.001.414-.063.604a.18.18 0 0 0 .119-.007l.277-.14c.09-.047.19-.038.136.097-.108.276-.25.555-.532.678l-.02.048a.83.83 0 0 1-.54.455c-.28.526-.969.522-1.137.246-.828-.017-1.237-1.545-1.15-2.18.138-1.036 1.011-2.251 1.885-2.785.846-.513 1.905-.574 2.87-.56 1.381.015 2.706.405 4.045.697.446.1.937.117 1.394.103l.066-.001a16.69 16.69 0 0 1-.048-3.278c.095-1.134.006-1.964-.199-3.097-.139-.773-.256-1.238-.688-1.883-.308-.457-.808-.937-1.395-.952-.12-.004-.3.162-.383.236a1.821 1.821 0 0 1-.685.395c-.375.119-.691.213-1.068.023a.843.843 0 0 1-.337-.299.953.953 0 0 0-.165-.172c-.123-.095-.284-.24-.28-.407a.24.24 0 0 1 .054-.158l-.139-.476c-.155-.122-.277-.248-.321-.445-.13-.086-.216-.209-.303-.34a1.078 1.078 0 0 1-.166-.51l-.006-.073c-.155-.19-.216-.544-.216-.755 0-.369.406-.573.675-.736.303-.192.507-.516.875-.642l.367-.092c.414-.091.622-.173.868-.531.575-.823 1.643-.95 2.567-.911.237.01.47.033.705.064.124-.193.404-.463.622-.555.605-.268 1.097-.082 1.342.298.186.286.196.683.214 1.082.39.27 1.016.803 1.31 1.115 1.294 1.364 1.727 2.865 2.534 4.499.368.839.82 1.503 1.443 1.949.263-1.503.42-3.032.42-4.558 0-.593-.024-1.19-.075-1.783-.236-2.625-1.114-6.324-3.205-8.111-.64-.519-1.686-1.164-2.523-.76-.47.228-.598.475-.814.8 0-1.035.048-2.029 1.427-2.313 1.416-.262 2.794.654 3.767 1.654-.14-.743-.193-1.525-.07-2.265.21-1.273 1.247-3.07 2.786-2.598.294.09.792.302 1.153.465l-.659.16c-1.23.298-1.696 1.725-1.716 2.851.008 1.034.724 2.37 1.182 3.284l.405.834c-.18-2.048.649-4.826 3.027-3.841.194.08.685.48.89.689l-.575.031c-2.272.13-1.632 3.167-1.101 4.56.157.4.308.799.437 1.208l.023.059c.159-1.015.591-2.107 1.516-2.44.928-.31 1.662.482 2.388.964-1.187-.246-1.968-.089-2.251 1.386-.264 1.056.151 2.47.419 3.498l.021.075c.146-.876.54-1.782 1.462-1.81a1.4 1.4 0 0 1 .832.195c.241.144.654.512.92.753l-.626-.017c-.84-.023-1.047.105-1.102.966-.042.63.063 1.321.158 1.942.078.526.16 1.047.222 1.57.172-.438.497-.853.955-.946a.948.948 0 0 1 .702.1c.146.084.385.37.533.566l-.34.088c-.706.187-.594 1.07-.594 1.637.004.203.01.404.01.608v.109c.483-.167.716-.317 1.144-.65l.215-.166c1.003-.768 2.239-1.374 3.502-1.54.99-.126 2.155.075 3.104.365 1.016.314 1.77.805 2.637 1.405.716.496 2.207 1.187 2.902.313.733-.923-.15-2.122-.722-2.873-.8-1.052-4.003-2.744-5.279-3.444-2.018-1.122-4.039-2.192-5.105-4.371-.719-1.472-.724-3.23.112-4.653.366-.622 1.38-1.848 2.196-1.376.769.445.46 1.493.119 2.11-.54 1.002-.51 1.778.222 2.71.992 1.263 3.644 2.822 5.105 3.527 1.725.833 3.627 1.993 4.817 3.528 1.017 1.306 1.606 2.754 1.461 4.425-.117 1.393-1.02 2.454-2.2 3.123-.088.051-.542.304-.58.384.047.113.351.183.372.4.158 1.046.274 2.058.274 3.121 0 1.163-.2 2.47-.348 3.63-.083.655-.222 1.476-.222 2.13 0 .955.965 1.424.965 2.355 0 .614-1.348 2.647-1.763 3.242-.255.361-1.415 1.956-1.415 2.372v.022c.01.06.034.136.094.166.065.037.172.019.245-.014.32-.114.401.286.134.411l-.126.058c-.217.112-.42.203-.666.24a.804.804 0 0 1-.377-.015 3 3 0 0 1-.71.923c-.682.585-1.476.596-2.297.813-.278.074-.57.16-.856.188a3.314 3.314 0 0 1-1.057-.085c-.092.264.104.498.218.734-.344-.17-.776-.305-.9-.712l-.127-.064a.83.83 0 0 1-.42-.481l-.032-.018c-.603-.302-.562-1.101-.231-1.226a.79.79 0 0 1-.01-.116c0-.13-.012-.097.06-.188.25-.37.381-.53.781-.746.426-.232 1.192-.447 1.673-.427.464.027.917.2 1.378.2.51 0 .643-.06.96-.472.461-.603 1.127-2.059 1.383-2.794.235-.68.313-1.097.368-1.801.05-.607-.339-1.131-.548-1.674-.29-.738-.832-1.598-1.236-2.291l-.64-1.133-.022-.039-.012.017c-.36.495-.745 1.519-.81 2.128-.055.545.177.753-.005 1.354-.034.115-.074.366-.137.456-.076.106-.615.349-.747.422-.702.398-3.32 1.968-3.599 2.634-.151.362-.103.483.19.674.065.333-.494.338-.682.324a.918.918 0 0 1-.59-.26c-.015.012-.03.02-.046.031a.169.169 0 0 0-.052.05c-.186.304-.199.396-.48.689-.576.603-1.075.397-1.744.556-.418.106-1.512.318-1.902.214a3.621 3.621 0 0 1-.508-.186c-.096.289-.034.448.049.732-.346-.174-.632-.256-.752-.673a.83.83 0 0 1-.394-.46l-.002-.001c-.518-.263-.538-.906-.305-1.125a1.077 1.077 0 0 1 .16-.694c.321-.5 1.022-.679 1.573-.74.392-.045 1.395-.063 1.775.143.946.23.962-.065 1.62-.603.847-.695 1.592-1.686 2.384-2.455.45-.446.706-.881.77-1.524.077-.773-.539-2.27-.876-2.988-.248-.52-.424-1.284-.518-1.873-1.856 1.367-3.595 3.762-5.205 4.771l-.541.34" fill="#231F20"/>
        <path d="M30.7 38.67a3.434 3.434 0 0 1 3.427-3.439 3.435 3.435 0 0 1 3.425 3.438 3.435 3.435 0 0 1-3.425 3.438 3.434 3.434 0 0 1-3.427-3.438zm8.177 0a4.76 4.76 0 0 1-1.566 3.537l-.017.008a4.711 4.711 0 0 1-3.621 1.196h-.004a4.686 4.686 0 0 1-2.662-1.15h.003c-.036-.034-.075-.065-.11-.098l-.001.006a4.776 4.776 0 0 1 .498-7.399h.004a4.713 4.713 0 0 1 3.63-.776 4.78 4.78 0 0 1 3.298 2.453v.004c.106.2.14.252.272.62v-.004c.13.357.21.73.25 1.107l.003-.002a5.8 5.8 0 0 1 .023.497M20.683 53.145c-.304-.146-.394.706.18.996-.208-.446.42-.709-.18-.996zM19.743 52.295c-.246-.122-.322.571.148.808-.17-.36.34-.575-.148-.808z" fill="#FBC707"/>
        <path d="M20.174 52.59c-.26-.124-.336.602.155.852-.18-.379.355-.607-.155-.852zM15.035 41.675c-.106.232.537.287.747-.157-.332.169-.542-.305-.747.157z" fill="#FBC707"/>
        <path d="M14.531 42.12c-.119.263.61.324.846-.176-.378.19-.612-.343-.846.176z" fill="#FBC707"/>
        <path d="M14.053 42.53c-.113.25.578.306.804-.168-.358.18-.582-.325-.804.168zM45.723 53.288c-.227-.11-.298.533.14.754-.161-.339.315-.537-.14-.754zM44.732 52.167c-.258-.126-.336.603.157.851-.178-.38.36-.607-.157-.851z" fill="#FBC707"/>
        <path d="M45.19 52.668c-.26-.127-.335.601.154.85-.177-.382.358-.608-.155-.85z" fill="#FBC707"/>
        <path d="M36.777 48.523c.112-.045.253.008.373.203.277-.296.79-.844 1.61-.728-.537-.033-1.382.518-1.591.85.003.045-.03.15-.054.23.083-.05.319-.014.406.256.209.112.462.203.637.252.296.081 1.273-.082 1.803-.215.526-.125 1.137.035 1.65-.501.512-.535.345-.617.564-.763l.211-.147s.1.311.547.34c.447.035.426-.063.426-.063s-.426-.1-.127-.815c.298-.712 2.789-2.225 3.682-2.73.892-.5.612-.158.794-.76.18-.603-.069-.682 0-1.32.065-.63.46-1.702.843-2.223v-.011c-.428-.777-.787-1.436-.962-2.144-.2-.776-.542-1.818-2.191-1.798-.795.008-1.516.35-2.104.744l-.03.042s.18 1.2.512 1.898c.328.7.975 2.261.895 3.088-.085.83-.484 1.3-.83 1.644-.347.34-1.801 1.98-2.397 2.467-.594.488-.71.912-1.817.636-.388-.245-3.463-.436-3.234 1.166.103-.084.301.06.325.16.353-.697.873-.933 1.4-.86-.753.038-1.131.43-1.34 1.102z" fill="#FFF"/>
        <path d="M39.013 38.669a4.906 4.906 0 0 1-1.242 3.265c2.38-1.494 4.857-5.774 7.795-5.806 1.782-.02 2.095 1.223 2.259 1.891.185.735.561 1.437 1.002 2.253l.086.159.641 1.13c.49.842 1.041 1.799 1.247 2.316.227.59.615 1.092.56 1.764-.052.676-.088 1.011-.38 1.848-.298.863-1.05 2.377-1.41 2.848-.369.483-.57.55-1.116.55-.476 0-.917-.175-1.388-.199-.357-.016-1.095.143-1.568.403-.382.205-.489.348-.715.685a.12.12 0 0 0-.023.076c0 .053-.002.111.043.2a.385.385 0 0 1 .136.065c.461-.9 1.071-.862 1.786-.851-.612.087-1.225.02-1.675.952.083.092.092.2.092.31.154.057.195.103.263.175l.014-.032c.287-.65 1.106-.537 1.696-.718-.448.28-1.213.101-1.567.777-.02.047-.02.048-.045.1a.606.606 0 0 1 .017.17c.02.025.052.109.084.14.164 0 .434.164.408.332.02.018.056.054.074.068.094.023.592.132 1.011.085.247-.024.516-.099.831-.183.791-.208 1.581-.222 2.219-.771.5-.432.714-.975.718-.98l.047-.114.078.1c.001.002.068.085.342.041.251-.04.458-.144.609-.22l.13-.062c.044-.021.057-.049.057-.06a.083.083 0 0 0-.038.011c-.111.049-.276.076-.41 0-.071-.036-.162-.121-.193-.308a.489.489 0 0 1-.003-.05c0-.391.56-1.21 1.453-2.486.83-1.185 1.727-2.721 1.727-3.129 0-.856-.966-1.312-.966-2.355 0-.384.104-1.204.222-2.154.166-1.273.347-2.715.347-3.606 0-1.09-.107-2.018-.273-3.096-.007-.095-.359-.223-.372-.404-.005-.113.1-.247.682-.575 1.251-.71 1.998-1.764 2.1-2.97.128-1.492-.336-2.894-1.42-4.286-.972-1.254-2.573-2.422-4.747-3.473-1.473-.707-4.177-2.308-5.176-3.583-1.08-1.376-.513-2.42-.241-2.924.13-.23.716-1.405-.044-1.848-.6-.346-1.487.555-1.93 1.306a4.72 4.72 0 0 0-.104 4.47c1.046 2.138 3.068 3.195 5.023 4.284 1.831 1.002 4.594 2.521 5.337 3.496.814 1.069 1.466 2.183.724 3.115-.68.853-2.082.478-3.167-.274-1.048-.725-1.67-1.097-2.584-1.38-1.088-.332-2.189-.463-3.023-.357-.653.086-1.97.398-3.407 1.502l-.213.162c-.44.343-.642.501-1.323.723-.005.471-.03.968-.1 1.475.524-.974 1.378-.437 1.596.366-.985-.247-.915.566-1.013 1.39-.032.31-.07.597-.122.814a6.95 6.95 0 0 1-1.496 2.811c.022.203.038.415.038.626" fill="#FFF"/>
        <path d="M24.698 15.964c.927-.448 2.034.219 2.73.782 1.723 1.472 2.947 4.556 3.274 8.245.054.582.08 1.182.08 1.802 0 1.468-.147 3.036-.44 4.675.142.095.288.173.434.236a26.57 26.57 0 0 0 .455-4.746c0-.678-.031-1.338-.094-1.977-.378-3.842-1.671-6.918-3.541-8.438-.702-.526-2.059-1.208-2.898-.579" fill="#FBC707"/>
        <path d="M29.326 16.742c-.933-1.06-2.4-2.2-3.892-1.924a1.565 1.565 0 0 0-1.27 1.493c.94-1.267 2.499-.646 3.52.114 1.9 1.55 3.21 4.662 3.596 8.543.223 2.32.046 4.49-.362 6.778.346.135.728.2 1.098.247.9-4.689.523-7.872-1.366-12.096-.442-1.068-.927-2.064-1.324-3.155" fill="#FFF"/>
        <path d="M31.612 34.467c.18-.11.365-.205.557-.29.487-2.014.927-4.27.927-6.595 0-2.81-.782-5.328-1.963-7.864-.682-1.556-1.668-3.068-1.691-4.826.029-1.35.706-3.424 2.38-3.29-1.416-.434-2.351 1.316-2.537 2.444-.138.84-.049 1.759.168 2.648.341 1.09.947 2.224 1.33 3.145 1.541 3.455 2.136 6.164 1.72 9.934l-.013.116c-.186 1.546-.505 3.07-.878 4.578" fill="#FBC707"/>
        <path d="M32.336 34.108c.34-.138.704-.233 1.08-.288.407-1.71.753-3.42.784-5.18v-.003c.002-.039.002-.081.002-.123 0-2.53-.58-5.025-1.368-7.41-.158-.492-.258-.738-.392-1.227l-.779-1.613c-.616-1.222-1.195-2.38-1.204-3.37.024-1.242.552-2.724 1.866-3.043-1.857-.624-2.71 1.532-2.741 3.041.022 1.737 1.007 3.231 1.678 4.768.681 1.458 1.42 3.203 1.734 5.07.587 3.275.01 6.564-.66 9.378" fill="#FFF"/>
        <path d="M33.569 33.8c.162-.02.327-.03.492-.033.374-1.59.733-3.36.733-5.183 0-.655-.045-1.318-.153-1.978-.32-1.93-.675-3.836-1.349-5.674-.3-.823-.61-1.663-.61-2.543 0-1.36.771-3.643 2.513-3.038-2.6-1.075-3.196 2.865-2.545 4.706l.318.997c.797 2.422 1.382 4.938 1.375 7.505v.088c-.03 1.744-.372 3.455-.774 5.152" fill="#FBC707"/>
        <path d="M34.211 33.767c.292.008.581.037.856.093.404-1.414.79-3.028.79-4.613a6.61 6.61 0 0 0-.018-.563c-.08-1.297-.337-2.46-.613-3.64-.148-.65-.309-1.498-.309-2.35 0-.123.004-.248.01-.366a21.419 21.419 0 0 0-.624-1.808c-.557-1.454-1.225-4.684 1.27-4.824-1.775-1.21-2.749 1.288-2.749 2.691 0 .852.306 1.687.602 2.495.677 1.847 1.04 3.76 1.356 5.702.108.67.155 1.339.155 2 0 1.823-.356 3.594-.726 5.183" fill="#FFF"/>
        <path d="M35.21 33.89c.122.027.246.06.363.096.397-1.407.777-3.017.777-4.65 0-.226-.01-.45-.022-.674-.033-1.025-.282-2.053-.521-3.043-.262-1.051-.51-2.063-.51-3.06 0-.785.186-1.913.663-2.555.364-.471.929-.661 1.496-.501-.301-.157-.603-.153-.932-.042-1.142.413-1.464 2.158-1.464 3.232 0 .84.156 1.678.303 2.318.282 1.183.533 2.356.62 3.66.013.195.018.383.018.576 0 1.595-.39 3.218-.792 4.643z" fill="#FBC707"/>
        <path d="M35.71 34.031c.18.062.363.134.535.217.591-1.177.94-2.228 1.048-3.211.118-1.012.015-2.04-.1-2.915-.092-.657-.2-1.44-.176-2.213-.062-.25-.125-.491-.188-.733-.363-1.383-.673-2.58-.422-3.592.148-.772.63-1.804 1.608-1.662-.291-.193-.722-.409-1.161-.318a1.272 1.272 0 0 0-.781.486c-1.087 1.471-.504 3.968-.13 5.495.247 1 .5 2.033.527 3.072.128 1.882-.303 3.762-.76 5.374" fill="#FFF"/>
        <path d="M36.372 34.312c.104.054.21.116.312.177.616-1.222.966-2.334 1.08-3.387.14-1.026-.017-2.066-.166-3.08-.109-.727-.215-1.428-.215-2.117 0-1.062.351-2.676 1.847-2.152a1.194 1.194 0 0 0-.72-.167c-1.142.031-1.355 1.693-1.355 2.56 0 .673.097 1.342.18 1.959.08.601.154 1.278.154 1.974 0 .324-.016.65-.054.973-.11 1-.464 2.068-1.063 3.26" fill="#FBC707"/>
        <path d="M36.803 34.568c.232.153.449.323.648.508.388-.608.664-1.186.84-1.76.287-.885.354-1.786.426-2.744.019-.297.043-.601.073-.906-.114-1.72-.538-3.233-.464-4.393.063-.97.357-1.173 1.305-1.146-1.518-1.117-2.106.64-2.106 1.779 0 .68.107 1.371.214 2.096.149 1.03.306 2.079.165 3.118-.114 1.076-.471 2.203-1.101 3.448" fill="#FFF"/>
        <path d="M37.553 35.175c.084.086.165.169.244.258.437-.674.744-1.323.933-1.974.304-1 .342-2.029.376-3.03.021-.628-.048-1.534.404-2.055.21-.272.635-.356.951-.252a.745.745 0 0 0-.558-.076h-.002c-.427.085-.802.57-.917 1.174-.059.454-.091.916-.124 1.363-.067.921-.14 1.876-.431 2.773-.184.596-.473 1.193-.876 1.82z" fill="#FBC707"/>
        <path d="M37.895 35.548c.198.244.373.501.521.776.702-1.034.875-2.179 1.399-3.313v-.004c.132-.744.156-1.487.156-2.154 0-.21-.003-.413-.007-.607 0-.666-.103-1.606.738-1.827-.282-.267-.833-.278-1.08.047-.423.487-.35 1.385-.372 1.969-.036 1.007-.072 2.049-.386 3.065-.192.675-.513 1.347-.97 2.048" fill="#FFF"/>
        <path d="M38.502 36.488c.05.093.091.19.132.29.07-.1.134-.202.191-.306.506-.85.797-1.823 1.04-2.78.112-.506.486-1.623 1.285-1.256-.797-.6-1.335.866-1.454 1.294-.33.946-.628 1.916-1.194 2.758z" fill="#FBC707"/>
        <path d="M38.7 36.938c.11.294.192.598.244.919a6.726 6.726 0 0 0 1.387-2.657c.054-.21.087-.497.123-.797.071-.6.052-1.72.905-1.575-.688-1.007-1.227.36-1.352.9-.252.966-.544 1.95-1.059 2.815a3.031 3.031 0 0 1-.248.395zM23.35 22.928c.255-.35.797-.241.926.137.095.274.155.821-.028.973-.22-.03-.567-.058-.732.041.24-.376.702.097.591-.757-.046-.354-.422-.618-.758-.394zm-3.047 1.827c.024-.277.321-.487.693-.487.255 0 .485.103.607.27l.514.241-.034.096c-.1-.024-.27-.05-.318-.023l-.112.099.01-.017c-.084.22-.358.376-.667.376a.863.863 0 0 1-.294-.056l-.327-.053-.315-.008-.1-.221.058-.016s.125-.032.202-.102a.373.373 0 0 0 .083-.099zm1.145-.116c.04.047.064.095.064.148 0 .188-.232.34-.516.34-.283 0-.512-.152-.512-.34 0-.05.018-.094.049-.14a.457.457 0 0 0 .915-.009zm-.735-.003c0-.035.01-.072.023-.106-.016.176.083.311.278.311.1 0 .185-.05.237-.12a.275.275 0 0 1-.258.195.28.28 0 0 1-.28-.28zm4.048 1.483c.313.765-.085 2.012-.838 2.378-.274.129-1.359.252-2.059-.159.46.105 1.499.204 1.92-.043.755-.359 1.087-1.404.977-2.176zm6.056 16.158a4.898 4.898 0 0 1-1.577-3.607c0-1.708.872-3.214 2.193-4.09.18-.801.391-1.605.547-2.411-1.753-.133-2.742-1.11-3.435-2.685-.787-1.598-1.205-3.085-2.497-4.449-.351-.366-1.329-1.119-1.338-1.125l-.025-.021-.002-.032c0-.004-.018-.288-.07-.621-.055-.324-.08-.5-.392-.65-.327-.156-.556-.115-.819.002-.268.114-.578.548-.585.548l-.024.038-.04-.007s-.36-.054-.766-.071c-.87-.037-1.872.076-2.397.826-.274.398-.517.507-.987.608l-.357.093c-.3.101-.542.44-.825.617-.184.112-.58.308-.58.571 0 .182.07.596.225.68.074.04.156.069.189.01.082-.15.22-.31.213-.439.096.232-.047.421-.136.56-.062.092-.21.018-.272 0 .01.113.04.286.13.416.1.143.182.263.323.327.017.243.184.358.354.482-.02-.107-.086-.298-.055-.4.007-.012.008-.032.014-.049.02-.004.043-.005.065-.01.038.097.127.15.216.127.106-.03.168-.108.168-.226v-.012c0-.016 0-.033-.006-.048l.037-.02c.03.105.104.17.198.17.115 0 .204-.095.204-.22v-.01c0-.026 0-.051-.002-.077l.026-.002c.741-.041 1.124.795.386 1.17-.176.09-.353.044-.515.048-.11.001-.21.054-.321.082l-.38-.29.117.401c-.035.02-.085.043-.085.088 0 .03.02.107.207.252.092.073.15.143.2.212.068.09.125.165.27.238.316.16.584.073.921-.035a1.61 1.61 0 0 0 .614-.357c.172-.147.338-.286.518-.282.552.013 1.114.391 1.554 1.039.278.42.5.746.716 1.959.317 1.746.267 2.362.2 3.143-.05.607-.109 1.293-.005 2.676.184 2.542.963 3.838 3.364 4.83-.612-2.413.442-3.754 1.089-4.415-1.283 1.466-.998 4.104-.72 4.851.005.038.09.928-.02 1.342-.065.256-.488 1.655-.896 3.01l-.665 2.222c-.29.976-.576 1.805-1.17 2.063-.352.152-.778.095-1.303-.166-.563-.287-.792-.27-.792-.27-.975-.248-2.296.198-2.403 1.307.143-.076.389.09.378.143.35-1.1 1.162-.8 1.371-.76-.287.057-1.078-.16-1.274.85.255.072.378.164.435.397.19-.705 1.049-.561 1.464-.432-.44-.023-1.177-.023-1.41.614.18.047.42.14.474.376.655.053 1.093.38 1.808.201.211-.057.431-.114.66-.144.9-.1 1.812-.141 2.476-.87.71-.78.64-1.042.64-1.042l.13-.061c.005.007.134.217.633.12.273-.05.404-.133.466-.195a.691.691 0 0 1-.502-.215c-.096-.096-.136-.24-.136-.402 0-.455.29-1.05.335-1.137.09-.181.5-.906.975-1.745.663-1.161 1.411-2.48 1.525-2.737l.046-.113c.184-.406.41-.912.44-1.782.02-.467.144-.779.27-.977" fill="#FFF"/>
        <path d="M13.846 40.741c.002.287.105 1.113.557 1.422-.024-.157.258-.394.387-.345.038-.058-.029-.093-.023-.145-.285-.495-.276-.854-.106-1.34-.076.338-.04.838.246 1.349.052-.152.192-.403.44-.297.207-.363.01-1.148.057-1.372.171-.785 1.09-.91 1.753-.835l.074.142s-.16.124-.16.5c0 .369.145.443.145.443s.049-.496.478-.607c.423-.108.903.164 1.116.25.214.089 2.995 1.673 4.343 2.296.572.263 1.741.626 2.754-.016-1.754-.625-2.725-1.972-2.98-3.988-.359.012-.93.007-1.44-.107-.816-.177-2.587-.677-4.006-.692-1.42-.019-2.182.178-2.765.534-.588.356-1.634 1.447-1.794 2.638-.055.405.24 2.031 1.017 1.958.072-.193.14-.307.296-.318-.387-.487-.545-1.048-.389-1.47" fill="#FFF"/>
        <path d="M37.24 49.195c-.23-.11-.297.534.14.751-.162-.337.313-.534-.14-.751zM36.438 48.205c-.245-.12-.32.57.148.809-.168-.364.34-.577-.148-.809z" fill="#FBC707"/>
        <path d="M36.852 48.637c-.26-.125-.34.602.154.852-.177-.382.36-.607-.154-.852z" fill="#FBC707"/>
        <path d="M31.063 38.67c0 1.702 1.383 3.05 3.063 3.068 1.688-.018 3.062-1.36 3.062-3.069a3.074 3.074 0 0 0-3.062-3.07 3.073 3.073 0 0 0-3.063 3.07zm-.257 0c0 1.847 1.497 3.307 3.32 3.327 1.83-.02 3.321-1.473 3.321-3.328a3.334 3.334 0 0 0-3.32-3.33 3.332 3.332 0 0 0-3.32 3.33zM33.205 43.484a4.881 4.881 0 0 1-2.277-1.108c-.112.18-.22.462-.236.884a6.952 6.952 0 0 1-.026.359c.769.024 1.641-.01 2.539-.135z" fill="#FFF"/>
        <path d="M33.616 38.67c0 .283.225.514.51.514a.511.511 0 0 0 .51-.515.511.511 0 0 0-.51-.513.512.512 0 0 0-.51.513zm-1.76 1.877c-.103-.217-.088-.486.15-.727.163-.161 1.368-.98 1.66-.689.28.278-.501 1.476-.689 1.665-.227.233-.533.23-.776.103a2.99 2.99 0 0 0 1.638.708.633.633 0 0 1-.402-.618c0-.222.278-1.667.69-1.667.41 0 .686 1.446.686 1.667a.633.633 0 0 1-.403.618 2.998 2.998 0 0 0 1.574-.647.638.638 0 0 1-.71-.164c-.157-.156-.983-1.377-.69-1.665.294-.29 1.506.535 1.661.69a.647.647 0 0 1 .164.718c.354-.433.59-.97.65-1.566a.65.65 0 0 1-.622.39c-.224 0-1.662-.281-1.662-.694 0-.413 1.445-.689 1.662-.689.317 0 .526.17.622.391a2.945 2.945 0 0 0-.653-1.57.701.701 0 0 1-.16.72c-.196.196-1.375.98-1.663.69-.288-.293.534-1.51.691-1.668a.662.662 0 0 1 .72-.154c-.438-.363-.98-.601-1.573-.66.222.095.392.304.392.626 0 .217-.275 1.664-.686 1.664-.41 0-.69-1.386-.69-1.664 0-.322.17-.53.39-.626a2.934 2.934 0 0 0-1.57.66c.218-.102.485-.082.72.154.152.15.982 1.374.689 1.667-.288.295-1.504-.536-1.66-.689-.233-.235-.233-.539-.11-.779a2.94 2.94 0 0 0-.702 1.635c.094-.225.303-.397.624-.397.217 0 1.658.276 1.658.69 0 .412-1.432.694-1.658.694a.644.644 0 0 1-.624-.395c.06.6.3 1.143.662 1.578" fill="#FBC707"/>
        <path d="M33.753 38.67c0 .206.166.377.374.377.207 0 .371-.17.371-.377a.372.372 0 1 0-.745 0zM34.677 40.955c0-.227-.274-1.468-.55-1.468-.279 0-.555 1.24-.555 1.468 0 .72 1.105.72 1.105 0zM32.121 39.896c-.539.545.325 1.244.778.785.16-.16.839-1.234.646-1.427-.202-.2-1.265.482-1.424.642M33.31 38.67c0-.28-1.233-.554-1.458-.554-.735 0-.735 1.11 0 1.11.227 0 1.458-.276 1.458-.556M32.12 37.441c.16.161 1.227.845 1.425.645.197-.196-.485-1.27-.644-1.43-.53-.532-1.252.31-.78.785zM33.572 36.388c0 .235.264 1.464.554 1.464.277 0 .55-1.238.55-1.464 0-.738-1.104-.738-1.104 0zM36.293 37.05c0-.483-.59-.742-.94-.394-.161.164-.842 1.234-.646 1.431.205.206 1.26-.478 1.426-.643a.554.554 0 0 0 .16-.393zM34.94 38.67c0 .28 1.236.556 1.466.556.73 0 .73-1.11 0-1.11-.228 0-1.466.274-1.466.554M35.35 40.68c.517.516 1.297-.265.781-.78-.16-.162-1.226-.844-1.426-.646-.197.195.487 1.268.646 1.426" fill="#FFF"/>
        <path d="m18.252 58.957-3.368 4.777c.072.05.144.102.215.153l3.363-4.77.005-.007c-.072-.05-.143-.103-.215-.153zM52.02 58.964l-.004-.007c-.073.051-.143.103-.215.154l3.367 4.777.216-.154-3.363-4.77z" fill="#FBC707"/>
    </g>
</svg>
